<?xml version="1.0" encoding="UTF-8" standalone="no"?>
<!-- Created with Inkscape (http://www.inkscape.org/) -->

<svg
   xmlns:dc="http://purl.org/dc/elements/1.1/"
   xmlns:cc="http://creativecommons.org/ns#"
   xmlns:rdf="http://www.w3.org/1999/02/22-rdf-syntax-ns#"
   xmlns:svg="http://www.w3.org/2000/svg"
   xmlns="http://www.w3.org/2000/svg"
   version="1.1"
   width="450"
   height="180"
   id="svg2">
  <defs
     id="defs4" />
  <metadata
     id="metadata7">
    <rdf:RDF>
      <cc:Work
         rdf:about="">
        <dc:format>image/svg+xml</dc:format>
        <dc:type
           rdf:resource="http://purl.org/dc/dcmitype/StillImage" />
        <dc:title></dc:title>
      </cc:Work>
    </rdf:RDF>
  </metadata>
  <g
     transform="translate(0,-872.35975)"
     id="layer1">
    <path
       d="m 0,872.3598 450,0 0,180 -450,0 z"
       id="rect3014"
       style="fill:#000000;stroke:none" />
    <g
       id="text2985"
       style="font-size:53.82616043px;font-style:normal;font-weight:normal;line-height:125%;letter-spacing:0px;word-spacing:0px;fill:#ffffff;fill-opacity:1;stroke:none;font-family:Sans">
      <path
         d="m 45.707355,986.55054 -6.455084,0 -2.967855,-5.11955 -10.313296,5.56473 c -5.737864,-10e-6 -9.596071,-2.0775 -11.574634,-6.2325 -0.989289,-2.02803 -1.681788,-4.20445 -2.077499,-6.52928 -0.346252,-2.37427 -0.519377,-4.82275 -0.519374,-7.34544 -3e-6,-2.57212 0.02473,-4.45176 0.0742,-5.63893 0.04946,-1.23658 0.173122,-2.64631 0.370982,-4.22919 0.197854,-1.63229 0.469907,-2.99255 0.81616,-4.0808 0.39571,-1.08818 0.939816,-2.20112 1.63232,-3.33884 0.692494,-1.1871 1.533385,-2.12692 2.522677,-2.81946 2.225881,-1.53335 5.119537,-2.30004 8.680976,-2.30009 l 10.164903,0 0,-13.72633 9.645528,0 0,55.79568 m -9.645528,-13.50374 0,-19.88463 -7.345441,0 c -2.72055,3e-5 -4.624922,1.03878 -5.713121,3.11625 -1.038762,2.07752 -1.558136,5.19377 -1.558124,9.34874 -1.2e-5,4.10555 0.49463,6.99921 1.483928,8.68098 1.038734,1.68179 2.967838,2.52268 5.787317,2.52267 l 7.345441,-3.78401"
         id="path3021"
         style="font-size:74.19637299px;font-variant:normal;font-stretch:normal;fill:#ffffff;font-family:Viga;-inkscape-font-specification:Viga" />
      <path
         d="m 88.930221,986.55054 -10.832671,0 -7.493833,-12.98437 -7.048656,12.98437 -11.574634,0 13.726329,-21.59115 -13.206954,-20.77498 10.83267,0 7.419638,12.2424 7.197048,-12.2424 10.83267,0 -13.206954,20.77498 13.355347,21.59115"
         id="path3023"
         style="font-size:74.19637299px;font-variant:normal;font-stretch:normal;fill:#ffffff;font-family:Viga;-inkscape-font-specification:Viga" />
      <path
         d="m 127.38945,967.63046 -24.70739,0 c -1e-5,3.85823 0.59356,6.67769 1.78071,8.45839 1.23659,1.78072 3.68507,2.67108 7.34544,2.67107 2.37426,1e-5 4.13024,-0.74196 5.26795,-2.22589 1.13765,-1.53338 1.70648,-2.99258 1.70651,-4.37759 l 8.68098,0 c -4e-5,5.29268 -1.4345,9.17562 -4.30339,11.64883 -2.81949,2.47321 -6.57877,3.70982 -11.27785,3.70982 -4.64966,0 -8.26054,-0.66777 -10.83267,-2.0033 -5.29268,-2.72053 -7.939015,-9.94231 -7.939012,-21.66534 -3e-6,-6.97443 1.508655,-12.06924 4.525979,-15.28446 3.017313,-3.2646 7.617483,-4.89691 13.800523,-4.89696 10.73371,5e-5 16.10058,5.96048 16.10062,17.88133 -4e-5,1.28609 -0.0495,3.31413 -0.1484,6.0841 m -24.4848,-6.60348 15.87802,0 c -3e-5,-3.26461 -0.61833,-5.63889 -1.85491,-7.12285 -1.23663,-1.48389 -3.141,-2.22585 -5.71312,-2.22589 -2.52269,4e-5 -4.55072,0.76673 -6.0841,2.30009 -1.48394,1.48396 -2.2259,3.83351 -2.22589,7.04865"
         id="path3025"
         style="font-size:74.19637299px;font-variant:normal;font-stretch:normal;fill:#ffffff;font-family:Viga;-inkscape-font-specification:Viga" />
      <path
         d="m 170.18801,964.21743 c -4e-5,11.03054 -2.84424,18.07919 -8.53259,21.14597 -2.32485,1.2366 -5.16904,1.8549 -8.53258,1.8549 l -7.12285,-4.60017 0,16.54579 -9.64553,0 0,-54.68273 18.99427,0 c 5.73782,5e-5 9.64549,1.63236 11.72303,4.89696 2.07746,3.21521 3.11621,8.16163 3.11625,14.83928 m -9.64553,1.48393 c -3e-5,-8.35943 -2.6711,-12.53916 -8.01321,-12.53919 l -6.52928,0 0,19.66204 6.52928,4.22919 c 2.8689,10e-6 4.92166,-0.89034 6.1583,-2.67107 1.23657,-1.83016 1.85488,-4.72382 1.85491,-8.68097"
         id="path3027"
         style="font-size:74.19637299px;font-variant:normal;font-stretch:normal;fill:#ffffff;font-family:Viga;-inkscape-font-specification:Viga" />
      <path
         d="m 210.66561,986.55054 -9.64553,0 0,-26.5623 c -3e-5,-4.55068 -1.78074,-6.82604 -5.34214,-6.82607 l -9.20035,3.63562 0,29.75275 -9.64553,0 0,-55.79568 9.64553,0 0,18.4749 12.2424,-5.49053 c 4.35282,4e-5 7.4196,1.23665 9.20035,3.70982 1.83014,2.47325 2.74523,5.93574 2.74527,10.38749 l 0,28.714"
         id="path3029"
         style="font-size:74.19637299px;font-variant:normal;font-stretch:normal;fill:#ffffff;font-family:Viga;-inkscape-font-specification:Viga" />
      <path
         d="m 225.01216,928.0096 c 2.32481,6e-5 3.83347,0.37104 4.52598,1.11294 0.69248,0.69256 1.03873,2.20122 1.03875,4.52598 -2e-5,2.27541 -0.371,3.78407 -1.11295,4.52598 -0.69251,0.69255 -2.20117,1.0388 -4.52597,1.03875 -2.27537,5e-5 -3.78403,-0.37093 -4.52598,-1.11294 -0.69251,-0.74192 -1.03876,-2.25058 -1.03875,-4.52598 -1e-5,-2.2753 0.34624,-3.75923 1.03875,-4.45179 0.74195,-0.7419 2.27534,-1.11288 4.60017,-1.11294 m 4.74857,58.54094 -9.64553,0 0,-40.80801 9.64553,0 0,40.80801"
         id="path3031"
         style="font-size:74.19637299px;font-variant:normal;font-stretch:normal;fill:#ffffff;font-family:Viga;-inkscape-font-specification:Viga" />
      <path
         d="m 249.82275,986.55054 -9.64553,0.0742 0,-55.86987 9.64553,0 0,55.79568"
         id="path3033"
         style="font-size:74.19637299px;font-variant:normal;font-stretch:normal;fill:#ffffff;font-family:Viga;-inkscape-font-specification:Viga" />
      <path
         d="m 269.53115,986.55054 -9.64553,0.0742 0,-55.86987 9.64553,0 0,55.79568"
         id="path3035"
         style="font-size:74.19637299px;font-variant:normal;font-stretch:normal;fill:#ffffff;font-family:Viga;-inkscape-font-specification:Viga" />
      <path
         d="M 310.90491,944.18441 294.8043,991.2991 c -0.74198,2.12696 -1.70654,3.78401 -2.89366,4.97116 -1.97859,1.97856 -4.74858,2.96784 -8.30999,2.96786 l -4.52598,0 0,-8.68098 2.96785,0 c 1.38499,0 2.39901,-0.24732 3.04205,-0.74196 0.69249,-0.44518 1.28606,-1.36027 1.78072,-2.74527 l 0.74196,-2.0775 -12.76178,-40.808 10.16491,0 7.56803,29.45596 8.1616,-29.45596 10.1649,0"
         id="path3037"
         style="font-size:74.19637299px;font-variant:normal;font-stretch:normal;fill:#ffffff;font-family:Viga;-inkscape-font-specification:Viga" />
      <path
         d="m 326.79335,976.60822 c 0.79141,0.74198 1.18712,2.34956 1.18714,4.82277 -2e-5,2.47321 -0.39573,4.10553 -1.18714,4.89696 -0.74198,0.79143 -2.34957,1.18714 -4.82277,1.18714 -2.47322,0 -4.10553,-0.39571 -4.89696,-1.18714 -0.79143,-0.79143 -1.18714,-2.42375 -1.18714,-4.89696 0,-2.47321 0.39571,-4.08079 1.18714,-4.82277 0.79143,-0.79141 2.42374,-1.18713 4.89696,-1.18714 2.4732,1e-5 4.08079,0.39573 4.82277,1.18714"
         id="path3039"
         style="font-size:74.19637299px;font-variant:normal;font-stretch:normal;fill:#ffffff;font-family:Viga;-inkscape-font-specification:Viga" />
      <path
         d="m 361.43727,967.40787 0,-3.85821 c -3e-5,-3.66033 -0.54414,-6.45505 -1.63232,-8.38419 -1.03878,-1.92907 -3.23994,-2.89362 -6.60348,-2.89366 -5.44108,4e-5 -8.16161,3.66039 -8.1616,10.98107 l 0,3.85821 c -1e-5,7.86482 2.72052,11.79723 8.1616,11.79722 3.51194,10e-6 5.81202,-1.31079 6.90026,-3.93241 0.89033,-2.07748 1.33551,-4.60016 1.33554,-7.56803 m 9.64552,-2.22589 c -3e-5,9.1509 -1.73128,15.28446 -5.19374,18.4007 -2.91842,2.67107 -7.14761,4.00661 -12.68758,4.00661 -7.0734,0 -11.8467,-2.0775 -14.3199,-6.2325 -2.32482,-3.80874 -3.48723,-9.20033 -3.48723,-16.17481 0,-6.52925 1.16241,-11.6488 3.48723,-15.35865 2.57213,-4.15495 7.2465,-6.23245 14.02311,-6.23249 6.82604,4e-5 11.54987,1.83022 14.17151,5.49053 2.67103,3.61092 4.00657,8.97779 4.0066,16.10061"
         id="path3041"
         style="font-size:74.19637299px;font-variant:normal;font-stretch:normal;fill:#ffffff;font-family:Viga;-inkscape-font-specification:Viga" />
      <path
         d="m 401.2784,944.3328 -2.67107,9.49714 c -0.74198,-0.29676 -1.58288,-0.44515 -2.52267,-0.44518 -2.47323,3e-5 -5.51528,1.06351 -9.12616,3.19044 l 0,29.97534 -9.64552,0 0,-42.36613 7.19704,0 2.22589,3.70982 10.2391,-4.2292 c 0.49462,-0.0494 1.16239,-0.0742 2.00331,-0.0742 0.84086,4e-5 1.60756,0.24736 2.30008,0.74196"
         id="path3043"
         style="font-size:74.19637299px;font-variant:normal;font-stretch:normal;fill:#ffffff;font-family:Viga;-inkscape-font-specification:Viga" />
      <path
         d="m 428.55486,944.48119 9.64553,-0.59357 0,40.73381 c -4e-5,4.6991 -1.33557,8.28526 -4.00661,10.75848 -2.62163,2.52266 -6.5293,3.784 -11.72302,3.78401 -4.00662,-10e-6 -7.51858,-0.79144 -10.53589,-2.37428 -1.58286,-0.79144 -2.8442,-1.97858 -3.78401,-3.56143 -0.93983,-1.58286 -1.40974,-3.4625 -1.40974,-5.63892 l 8.97777,-0.44518 c -2e-5,1.385 0.49462,2.37428 1.48392,2.96785 0.98927,0.59357 2.67106,0.89036 5.04536,0.89036 2.42372,0 4.05604,-0.59358 4.89696,-1.78071 0.89033,-1.18715 1.33551,-2.89366 1.33553,-5.11955 l 0.37098,-6.38089 -10.38749,5.56473 c -5.6884,0 -9.52187,-1.9291 -11.50044,-5.78732 -1.78071,-3.41302 -2.67107,-7.59275 -2.67107,-12.53919 0,-5.88622 0.44518,-10.04121 1.33554,-12.46499 0.93982,-2.67103 2.27535,-4.60013 4.0066,-5.78732 2.22588,-1.48388 5.14427,-2.22584 8.75518,-2.22589 l 10.1649,0 m 0,24.85579 0,-16.17481 -7.34544,0 c -2.77002,3e-5 -4.67439,0.93985 -5.71312,2.81946 -1.03876,1.87967 -1.55814,4.50127 -1.55813,7.86482 -1e-5,3.36359 0.51937,5.7626 1.55813,7.19705 1.0882,1.38501 2.99257,2.07751 5.71312,2.07749 l 7.34544,-3.78401"
         id="path3045"
         style="font-size:74.19637299px;font-variant:normal;font-stretch:normal;fill:#ffffff;font-family:Viga;-inkscape-font-specification:Viga" />
    </g>
    <g
       id="text2989"
       style="font-size:57.97917175px;font-style:normal;font-weight:normal;line-height:125%;letter-spacing:0px;word-spacing:0px;fill:#ffffff;fill-opacity:1;stroke:none;font-family:Sans">
      <path
         d="m 46.980957,913.99731 -4.810415,0 -1.327011,-4.08055 -7.928891,0 -1.293836,4.08055 -4.810415,0 7.563963,-21.63028 c 0.331744,-0.75195 0.696672,-1.27169 1.094784,-1.55923 0.420211,-0.2875 0.928898,-0.43126 1.526063,-0.43128 0.597144,2e-5 1.072655,0.13272 1.426537,0.3981 0.375974,0.26543 0.707726,0.79623 0.995258,1.59241 l 7.563963,21.63028 m -7.199035,-7.96206 -2.786723,-9.35543 -2.919425,9.35543 5.706148,0"
         id="path3048"
         style="font-size:33.17527771px;font-variant:normal;font-stretch:normal;fill:#ffffff;font-family:Viga;-inkscape-font-specification:Viga" />
      <path
         d="m 68.666703,890.37652 0,21.23217 c -2.2e-5,0.72986 -0.22119,1.36019 -0.663506,1.891 -0.442357,0.50868 -0.962102,0.76303 -1.559238,0.76303 -1.52608,0 -2.775681,-0.88468 -3.748806,-2.65403 l -8.161119,-12.77248 0,15.1611 -4.611363,0 0,-23.62079 4.445487,0 9.687181,15.45968 0,-15.45968 4.611364,0"
         id="path3050"
         style="font-size:33.17527771px;font-variant:normal;font-stretch:normal;fill:#ffffff;font-family:Viga;-inkscape-font-specification:Viga" />
      <path
         d="m 78.062563,913.99731 -4.611364,0 0,-23.62079 4.611364,0 0,23.62079"
         id="path3052"
         style="font-size:33.17527771px;font-variant:normal;font-stretch:normal;fill:#ffffff;font-family:Viga;-inkscape-font-specification:Viga" />
      <path
         d="m 101.00949,899.89782 -4.246437,8.95733 c -0.619287,1.19431 -1.393376,1.79146 -2.32227,1.79146 -0.906803,0 -1.669834,-0.63032 -2.289094,-1.89099 l -4.312786,-8.8578 0,14.09949 -4.611364,0 0,-23.62079 4.545013,0 6.668231,13.63504 6.635057,-13.63504 4.54501,0 0,23.62079 -4.61136,0 0,-14.09949"
         id="path3054"
         style="font-size:33.17527771px;font-variant:normal;font-stretch:normal;fill:#ffffff;font-family:Viga;-inkscape-font-specification:Viga" />
      <path
         d="m 128.36406,913.99731 -4.81042,0 -1.32701,-4.08055 -7.92889,0 -1.29383,4.08055 -4.81042,0 7.56396,-21.63028 c 0.33175,-0.75195 0.69668,-1.27169 1.09479,-1.55923 0.42021,-0.2875 0.9289,-0.43126 1.52606,-0.43128 0.59714,2e-5 1.07266,0.13272 1.42654,0.3981 0.37597,0.26543 0.70772,0.79623 0.99526,1.59241 l 7.56396,21.63028 m -7.19904,-7.96206 -2.78672,-9.35543 -2.91942,9.35543 5.70614,0"
         id="path3056"
         style="font-size:33.17527771px;font-variant:normal;font-stretch:normal;fill:#ffffff;font-family:Viga;-inkscape-font-specification:Viga" />
      <path
         d="m 146.20147,913.99731 -7.03315,0 c -2.65403,0 -4.5782,-0.50868 -5.7725,-1.52606 -1.1722,-1.03949 -1.75829,-2.72037 -1.75829,-5.04264 l 0,-17.05209 4.61136,0 0,17.05209 c -10e-6,0.92891 0.2101,1.5703 0.63033,1.92417 0.42021,0.35387 1.18324,0.5308 2.2891,0.5308 l 7.03315,0 0,4.11373"
         id="path3058"
         style="font-size:33.17527771px;font-variant:normal;font-stretch:normal;fill:#ffffff;font-family:Viga;-inkscape-font-specification:Viga" />
      <path
         d="m 172.18445,913.99731 -7.03316,0 c -2.65403,0 -4.57819,-0.50868 -5.77249,-1.52606 -1.1722,-1.03949 -1.7583,-2.72037 -1.75829,-5.04264 l 0,-17.05209 4.61136,0 0,17.05209 c -10e-6,0.92891 0.2101,1.5703 0.63033,1.92417 0.42021,0.35387 1.18324,0.5308 2.28909,0.5308 l 7.03316,0 0,4.11373"
         id="path3060"
         style="font-size:33.17527771px;font-variant:normal;font-stretch:normal;fill:#ffffff;font-family:Viga;-inkscape-font-specification:Viga" />
      <path
         d="m 180.50419,913.99731 -4.61136,0 0,-23.62079 4.61136,0 0,23.62079"
         id="path3062"
         style="font-size:33.17527771px;font-variant:normal;font-stretch:normal;fill:#ffffff;font-family:Viga;-inkscape-font-specification:Viga" />
      <path
         d="m 203.11937,907.19638 c -2e-5,2.18958 -0.59718,3.87045 -1.79147,5.04264 -1.17221,1.1722 -2.81991,1.75829 -4.94311,1.75829 l -3.18483,0 c -2.6098,0 -4.46761,-0.45339 -5.57345,-1.36018 -1.08373,-0.90679 -1.62559,-2.47709 -1.62559,-4.71089 l 0,-17.54972 9.98576,0 c 2.25591,2e-5 3.94784,0.564 5.07582,1.69194 1.15006,1.12798 1.72509,2.72039 1.72511,4.77724 -2e-5,1.19432 -0.30965,2.2117 -0.9289,3.05212 -0.59718,0.84046 -1.26068,1.43761 -1.99052,1.79147 2.16743,1.01738 3.25116,2.85308 3.25118,5.50709 m -7.49762,-7.59714 c 1.70299,2e-5 2.55449,-0.85148 2.5545,-2.55449 -1e-5,-1.70298 -0.85151,-2.55448 -2.5545,-2.5545 l -5.00946,0 0,5.10899 5.00946,0 m 2.88625,7.36492 c -1e-5,-1.06161 -0.18801,-1.85781 -0.56398,-2.38862 -0.376,-0.55292 -1.05056,-0.82938 -2.02369,-0.82939 l -5.30804,0 0,3.71563 c -1e-5,0.9068 0.22116,1.53713 0.6635,1.891 0.46445,0.35387 1.21642,0.5308 2.25592,0.5308 l 2.38862,0 c 1.7251,0 2.58766,-0.97314 2.58767,-2.91942"
         id="path3064"
         style="font-size:33.17527771px;font-variant:normal;font-stretch:normal;fill:#ffffff;font-family:Viga;-inkscape-font-specification:Viga" />
      <path
         d="m 223.3962,913.99731 -8.36017,0 c -2.65403,0 -4.5229,-0.45339 -5.60662,-1.36018 -1.06161,-0.92891 -1.59241,-2.55449 -1.59241,-4.87677 l 0,-17.38384 15.5592,0 0,4.11373 -10.94784,0 0,5.54027 7.66349,0 -0.33175,4.11374 -7.33174,0 0,3.28435 c -1e-5,0.92891 0.2101,1.5703 0.63033,1.92417 0.42021,0.35387 1.18324,0.5308 2.2891,0.5308 l 8.02841,0 0,4.11373"
         id="path3066"
         style="font-size:33.17527771px;font-variant:normal;font-stretch:normal;fill:#ffffff;font-family:Viga;-inkscape-font-specification:Viga" />
      <path
         d="m 245.80507,913.99731 -5.34122,0 -4.61137,-8.75827 -3.31752,0 0,8.75827 -4.61137,0 0,-18.54498 c 0,-1.76932 0.40916,-3.0521 1.22749,-3.84833 0.81832,-0.8183 2.18956,-1.22746 4.11373,-1.22748 l 3.91468,0 c 2.34438,2e-5 4.20219,0.71882 5.57345,2.15639 1.39334,1.4155 2.09002,3.21802 2.09004,5.40757 -2e-5,1.59243 -0.42024,2.97473 -1.26066,4.14691 -0.81834,1.15009 -1.83571,1.94629 -3.05212,2.38862 l 5.27487,9.5213 m -8.92415,-12.6066 c 0.97313,10e-6 1.76933,-0.33174 2.38862,-0.99526 0.64137,-0.68561 0.96206,-1.52605 0.96208,-2.52132 -2e-5,-1.01736 -0.30965,-1.83568 -0.92891,-2.45497 -0.59717,-0.61925 -1.40443,-0.92889 -2.42179,-0.92891 l -2.2891,0 c -1.37125,2e-5 -2.05687,0.6967 -2.05686,2.09004 l 0,4.81042 4.34596,0"
         id="path3068"
         style="font-size:33.17527771px;font-variant:normal;font-stretch:normal;fill:#ffffff;font-family:Viga;-inkscape-font-specification:Viga" />
      <path
         d="m 267.54471,913.99731 -4.81042,0 -1.32701,-4.08055 -7.92889,0 -1.29383,4.08055 -4.81042,0 7.56396,-21.63028 c 0.33175,-0.75195 0.69668,-1.27169 1.09479,-1.55923 0.42021,-0.2875 0.92889,-0.43126 1.52606,-0.43128 0.59714,2e-5 1.07266,0.13272 1.42654,0.3981 0.37597,0.26543 0.70772,0.79623 0.99526,1.59241 l 7.56396,21.63028 m -7.19904,-7.96206 -2.78672,-9.35543 -2.91942,9.35543 5.70614,0"
         id="path3070"
         style="font-size:33.17527771px;font-variant:normal;font-stretch:normal;fill:#ffffff;font-family:Viga;-inkscape-font-specification:Viga" />
      <path
         d="m 286.17834,894.49025 -6.33648,0 0,19.50706 -4.61136,0 0,-19.50706 -6.30331,0 0,-4.11373 17.25115,0 0,4.11373"
         id="path3072"
         style="font-size:33.17527771px;font-variant:normal;font-stretch:normal;fill:#ffffff;font-family:Viga;-inkscape-font-specification:Viga" />
      <path
         d="m 294.34982,913.99731 -4.61136,0 0,-23.62079 4.61136,0 0,23.62079"
         id="path3074"
         style="font-size:33.17527771px;font-variant:normal;font-stretch:normal;fill:#ffffff;font-family:Viga;-inkscape-font-specification:Viga" />
      <path
         d="m 317.16405,901.09213 0,1.79147 c -2e-5,3.95892 -0.752,6.83411 -2.25592,8.62557 -1.48185,1.79146 -3.87047,2.6872 -7.16586,2.6872 -3.29542,0 -5.68404,-0.89574 -7.16586,-2.6872 -1.45972,-1.79146 -2.18957,-4.69983 -2.18957,-8.7251 l 0,-1.72511 c 0,-3.67138 0.74091,-6.40281 2.22274,-8.1943 1.50394,-1.79144 3.87044,-2.68717 7.09951,-2.68719 3.25116,2e-5 5.63978,0.90681 7.16586,2.72037 1.52604,1.8136 2.28908,4.54503 2.2891,8.19429 m -4.61137,1.69194 0,-1.22748 c -1e-5,-2.12321 -0.26542,-3.81515 -0.7962,-5.07582 -0.61929,-1.4597 -1.9463,-2.18955 -3.98104,-2.18957 -2.05687,2e-5 -3.39494,0.72987 -4.01421,2.18957 -0.50869,1.19432 -0.76303,2.88626 -0.76303,5.07582 l 0,1.22748 c 0,2.85308 0.3981,4.77725 1.19431,5.7725 0.30963,0.42022 0.76303,0.78515 1.36019,1.09478 0.61926,0.28753 1.34912,0.43129 2.18957,0.43128 0.86254,10e-6 1.5924,-0.14375 2.18956,-0.43128 0.59715,-0.28751 1.0616,-0.64138 1.39337,-1.06161 0.33173,-0.42021 0.58608,-0.97313 0.76303,-1.65876 0.30962,-1.08372 0.46444,-2.46602 0.46445,-4.14691"
         id="path3076"
         style="font-size:33.17527771px;font-variant:normal;font-stretch:normal;fill:#ffffff;font-family:Viga;-inkscape-font-specification:Viga" />
      <path
         d="m 339.64134,890.37652 0,21.23217 c -2e-5,0.72986 -0.22119,1.36019 -0.66351,1.891 -0.44236,0.50868 -0.9621,0.76303 -1.55924,0.76303 -1.52608,0 -2.77568,-0.88468 -3.7488,-2.65403 l -8.16112,-12.77248 0,15.1611 -4.61137,0 0,-23.62079 4.44549,0 9.68718,15.45968 0,-15.45968 4.61137,0"
         id="path3078"
         style="font-size:33.17527771px;font-variant:normal;font-stretch:normal;fill:#ffffff;font-family:Viga;-inkscape-font-specification:Viga" />
      <path
         d="m 370.54878,890.37652 0,21.23217 c -2e-5,0.72986 -0.22119,1.36019 -0.66351,1.891 -0.44236,0.50868 -0.9621,0.76303 -1.55924,0.76303 -1.52608,0 -2.77568,-0.88468 -3.7488,-2.65403 l -8.16112,-12.77248 0,15.1611 -4.61136,0 0,-23.62079 4.44548,0 9.68718,15.45968 0,-15.45968 4.61137,0"
         id="path3080"
         style="font-size:33.17527771px;font-variant:normal;font-stretch:normal;fill:#ffffff;font-family:Viga;-inkscape-font-specification:Viga" />
      <path
         d="m 392.65077,901.09213 0,1.79147 c -2e-5,3.95892 -0.75199,6.83411 -2.25592,8.62557 -1.48184,1.79146 -3.87046,2.6872 -7.16586,2.6872 -3.29542,0 -5.68403,-0.89574 -7.16586,-2.6872 -1.45971,-1.79146 -2.18957,-4.69983 -2.18957,-8.7251 l 0,-1.72511 c 0,-3.67138 0.74092,-6.40281 2.22275,-8.1943 1.50394,-1.79144 3.87044,-2.68717 7.09951,-2.68719 3.25116,2e-5 5.63978,0.90681 7.16586,2.72037 1.52604,1.8136 2.28907,4.54503 2.28909,8.19429 m -4.61136,1.69194 0,-1.22748 c -2e-5,-2.12321 -0.26542,-3.81515 -0.79621,-5.07582 -0.61929,-1.4597 -1.9463,-2.18955 -3.98103,-2.18957 -2.05688,2e-5 -3.39495,0.72987 -4.01421,2.18957 -0.5087,1.19432 -0.76304,2.88626 -0.76303,5.07582 l 0,1.22748 c -1e-5,2.85308 0.39809,4.77725 1.19431,5.7725 0.30963,0.42022 0.76302,0.78515 1.36018,1.09478 0.61927,0.28753 1.34912,0.43129 2.18957,0.43128 0.86255,10e-6 1.5924,-0.14375 2.18957,-0.43128 0.59714,-0.28751 1.06159,-0.64138 1.39336,-1.06161 0.33174,-0.42021 0.58608,-0.97313 0.76303,-1.65876 0.30962,-1.08372 0.46444,-2.46602 0.46446,-4.14691"
         id="path3082"
         style="font-size:33.17527771px;font-variant:normal;font-stretch:normal;fill:#ffffff;font-family:Viga;-inkscape-font-specification:Viga" />
      <path
         d="m 423.18965,890.37652 -6.33647,23.62079 -3.84834,0 -4.34596,-14.33172 -4.34596,14.33172 -3.84833,0 -6.3033,-23.62079 4.81041,0 3.64928,14.8957 3.61611,-12.30803 c 0.39809,-1.83568 1.23853,-2.75353 2.52132,-2.75355 0.64137,2e-5 1.12794,0.24331 1.45971,0.72986 0.33174,0.46447 0.63031,1.13904 0.89573,2.02369 l 3.58293,12.30803 3.68246,-14.8957 4.81041,0"
         id="path3084"
         style="font-size:33.17527771px;font-variant:normal;font-stretch:normal;fill:#ffffff;font-family:Viga;-inkscape-font-specification:Viga" />
    </g>
    <g
       id="text2989-8"
       style="font-size:58.24464035px;font-style:normal;font-weight:normal;line-height:125%;letter-spacing:0px;word-spacing:0px;fill:#ffffff;fill-opacity:1;stroke:none;font-family:Sans">
      <path
         d="m 108.34954,1015.6708 0,12.0042 c -1e-5,2.4987 -0.51548,4.2635 -1.5464,5.2945 -1.03094,1.0134 -2.52491,1.5202 -4.48192,1.5202 -1.25809,0 -2.31523,-0.166 -3.171423,-0.498 -0.838724,-0.332 -1.616289,-0.8562 -2.332698,-1.5726 l 2.044387,-2.2279 c 0.297046,0.2971 0.742617,0.5504 1.336714,0.7601 0.61157,0.1922 1.30176,0.2883 2.0706,0.2883 0.78629,0 1.38913,-0.1835 1.80849,-0.5504 0.41936,-0.3844 0.62904,-1.0921 0.62905,-2.123 l 0,-12.8954 3.6432,0"
         id="path2990"
         style="font-size:26.21008873px;font-variant:normal;font-stretch:normal;fill:#ffffff;font-family:Viga;-inkscape-font-specification:Viga" />
      <path
         d="m 125.90293,1024.1367 0,1.4153 c -2e-5,3.1278 -0.59411,5.3993 -1.78229,6.8146 -1.17073,1.4154 -3.05785,2.1231 -5.66138,2.1231 -2.60354,0 -4.49066,-0.7077 -5.66138,-2.1231 -1.15324,-1.4153 -1.72986,-3.713 -1.72986,-6.8932 l 0,-1.3629 c 0,-2.9006 0.58535,-5.0586 1.75607,-6.4739 1.18819,-1.4154 3.05784,-2.123 5.60896,-2.123 2.56858,0 4.4557,0.7164 5.66138,2.1492 1.20565,1.4328 1.80848,3.5908 1.8085,6.4739 m -3.64321,1.3367 0,-0.9698 c -1e-5,-1.6774 -0.20969,-3.0141 -0.62904,-4.0101 -0.48926,-1.1533 -1.53767,-1.7299 -3.14521,-1.7299 -1.62503,0 -2.68217,0.5766 -3.17142,1.7299 -0.40189,0.9435 -0.60284,2.2803 -0.60283,4.0101 l 0,0.9698 c -1e-5,2.2541 0.31451,3.7742 0.94356,4.5605 0.24462,0.332 0.60283,0.6204 1.07462,0.865 0.48924,0.2271 1.06586,0.3407 1.72986,0.3407 0.68145,0 1.25808,-0.1136 1.72987,-0.3407 0.47177,-0.2272 0.83871,-0.5067 1.10082,-0.8387 0.26209,-0.332 0.46303,-0.7689 0.60283,-1.3106 0.24462,-0.8561 0.36693,-1.9482 0.36694,-3.2762"
         id="path2992"
         style="font-size:26.21008873px;font-variant:normal;font-stretch:normal;fill:#ffffff;font-family:Viga;-inkscape-font-specification:Viga" />
      <path
         d="m 132.75768,1034.3324 -3.6432,0 0,-18.6616 3.6432,0 0,18.6616"
         id="path2994"
         style="font-size:26.21008873px;font-variant:normal;font-stretch:normal;fill:#ffffff;font-family:Viga;-inkscape-font-specification:Viga" />
      <path
         d="m 151.64697,1015.6708 0,16.7745 c -2e-5,0.5766 -0.17475,1.0746 -0.5242,1.4939 -0.34949,0.4019 -0.76011,0.6029 -1.23188,0.6029 -1.20568,0 -2.19292,-0.699 -2.96174,-2.0968 l -6.44768,-10.0909 0,11.978 -3.6432,0 0,-18.6616 3.51215,0 7.65334,12.2139 0,-12.2139 3.64321,0"
         id="path2996"
         style="font-size:26.21008873px;font-variant:normal;font-stretch:normal;fill:#ffffff;font-family:Viga;-inkscape-font-specification:Viga" />
      <path
         d="m 173.65402,1018.9209 -5.00612,0 0,15.4115 -3.64321,0 0,-15.4115 -4.97991,0 0,-3.2501 13.62924,0 0,3.2501"
         id="path2998"
         style="font-size:26.21008873px;font-variant:normal;font-stretch:normal;fill:#ffffff;font-family:Viga;-inkscape-font-specification:Viga" />
      <path
         d="m 190.33183,1034.3324 -3.64321,0 0,-7.5485 -6.84083,0 0,7.5485 -3.6432,0 0,-18.6616 3.6432,0 0,7.8893 6.84083,0 0,-7.8893 3.64321,0 0,18.6616"
         id="path3000"
         style="font-size:26.21008873px;font-variant:normal;font-stretch:normal;fill:#ffffff;font-family:Viga;-inkscape-font-specification:Viga" />
      <path
         d="m 206.72747,1034.3324 -6.60494,0 c -2.09682,0 -3.57332,-0.3582 -4.42951,-1.0746 -0.83873,-0.7339 -1.25809,-2.0182 -1.25808,-3.8529 l 0,-13.7341 12.29253,0 0,3.2501 -8.64933,0 0,4.3771 6.05453,0 -0.2621,3.25 -5.79243,0 0,2.5948 c -1e-5,0.7339 0.16599,1.2406 0.49799,1.5202 0.33199,0.2796 0.93482,0.4193 1.8085,0.4193 l 6.34284,0 0,3.2501"
         id="path3002"
         style="font-size:26.21008873px;font-variant:normal;font-stretch:normal;fill:#ffffff;font-family:Viga;-inkscape-font-specification:Viga" />
      <path
         d="m 230.18263,1023.1931 -3.35489,7.0767 c -0.48927,0.9436 -1.10083,1.4154 -1.83471,1.4154 -0.71641,0 -1.31925,-0.498 -1.80849,-1.494 l -3.40731,-6.9981 0,11.1393 -3.64321,0 0,-18.6616 3.59079,0 5.26822,10.7724 5.24202,-10.7724 3.59078,0 0,18.6616 -3.6432,0 0,-11.1393"
         id="path3004"
         style="font-size:26.21008873px;font-variant:normal;font-stretch:normal;fill:#ffffff;font-family:Viga;-inkscape-font-specification:Viga" />
      <path
         d="m 251.32229,1024.1367 0,1.4153 c -2e-5,3.1278 -0.59411,5.3993 -1.78229,6.8146 -1.17073,1.4154 -3.05785,2.1231 -5.66137,2.1231 -2.60355,0 -4.49067,-0.7077 -5.66138,-2.1231 -1.15325,-1.4153 -1.72987,-3.713 -1.72987,-6.8932 l 0,-1.3629 c 0,-2.9006 0.58536,-5.0586 1.75608,-6.4739 1.18818,-1.4154 3.05783,-2.123 5.60896,-2.123 2.56857,0 4.4557,0.7164 5.66137,2.1492 1.20565,1.4328 1.80848,3.5908 1.8085,6.4739 m -3.6432,1.3367 0,-0.9698 c -1e-5,-1.6774 -0.20969,-3.0141 -0.62904,-4.0101 -0.48927,-1.1533 -1.53767,-1.7299 -3.14521,-1.7299 -1.62504,0 -2.68218,0.5766 -3.17143,1.7299 -0.40189,0.9435 -0.60283,2.2803 -0.60283,4.0101 l 0,0.9698 c 0,2.2541 0.31452,3.7742 0.94357,4.5605 0.24462,0.332 0.60282,0.6204 1.07461,0.865 0.48925,0.2271 1.06587,0.3407 1.72987,0.3407 0.68145,0 1.25807,-0.1136 1.72986,-0.3407 0.47177,-0.2272 0.83871,-0.5067 1.10083,-0.8387 0.26208,-0.332 0.46303,-0.7689 0.60283,-1.3106 0.24461,-0.8561 0.36693,-1.9482 0.36694,-3.2762"
         id="path3006"
         style="font-size:26.21008873px;font-variant:normal;font-stretch:normal;fill:#ffffff;font-family:Viga;-inkscape-font-specification:Viga" />
      <path
         d="m 267.50784,1015.6708 -5.87106,17.6132 c -0.31453,0.8038 -0.87368,1.2057 -1.67745,1.2057 -0.83873,0 -1.41535,-0.4019 -1.72986,-1.2057 l -5.79243,-17.6132 3.77425,0 3.74804,12.1615 3.74804,-12.1615 3.80047,0"
         id="path3008"
         style="font-size:26.21008873px;font-variant:normal;font-stretch:normal;fill:#ffffff;font-family:Viga;-inkscape-font-specification:Viga" />
      <path
         d="m 282.03028,1034.3324 -6.60494,0 c -2.09682,0 -3.57332,-0.3582 -4.42951,-1.0746 -0.83872,-0.7339 -1.25809,-2.0182 -1.25808,-3.8529 l 0,-13.7341 12.29253,0 0,3.2501 -8.64933,0 0,4.3771 6.05453,0 -0.2621,3.25 -5.79243,0 0,2.5948 c -10e-6,0.7339 0.16599,1.2406 0.49799,1.5202 0.33199,0.2796 0.93482,0.4193 1.8085,0.4193 l 6.34284,0 0,3.2501"
         id="path3010"
         style="font-size:26.21008873px;font-variant:normal;font-stretch:normal;fill:#ffffff;font-family:Viga;-inkscape-font-specification:Viga" />
      <path
         d="m 299.39364,1023.1931 -3.35489,7.0767 c -0.48927,0.9436 -1.10084,1.4154 -1.83471,1.4154 -0.71642,0 -1.31925,-0.498 -1.8085,-1.494 l -3.40731,-6.9981 0,11.1393 -3.6432,0 0,-18.6616 3.59078,0 5.26823,10.7724 5.24202,-10.7724 3.59078,0 0,18.6616 -3.6432,0 0,-11.1393"
         id="path3012"
         style="font-size:26.21008873px;font-variant:normal;font-stretch:normal;fill:#ffffff;font-family:Viga;-inkscape-font-specification:Viga" />
      <path
         d="m 319.14417,1034.3324 -6.60494,0 c -2.09682,0 -3.57332,-0.3582 -4.42951,-1.0746 -0.83872,-0.7339 -1.25808,-2.0182 -1.25808,-3.8529 l 0,-13.7341 12.29253,0 0,3.2501 -8.64933,0 0,4.3771 6.05453,0 -0.2621,3.25 -5.79243,0 0,2.5948 c -1e-5,0.7339 0.16599,1.2406 0.49799,1.5202 0.33199,0.2796 0.93482,0.4193 1.8085,0.4193 l 6.34284,0 0,3.2501"
         id="path3014"
         style="font-size:26.21008873px;font-variant:normal;font-stretch:normal;fill:#ffffff;font-family:Viga;-inkscape-font-specification:Viga" />
      <path
         d="m 337.26764,1015.6708 0,16.7745 c -2e-5,0.5766 -0.17475,1.0746 -0.5242,1.4939 -0.34949,0.4019 -0.76011,0.6029 -1.23188,0.6029 -1.20568,0 -2.19292,-0.699 -2.96174,-2.0968 l -6.44768,-10.0909 0,11.978 -3.6432,0 0,-18.6616 3.51215,0 7.65335,12.2139 0,-12.2139 3.6432,0"
         id="path3016"
         style="font-size:26.21008873px;font-variant:normal;font-stretch:normal;fill:#ffffff;font-family:Viga;-inkscape-font-specification:Viga" />
      <path
         d="m 353.18289,1018.9209 -5.00612,0 0,15.4115 -3.64321,0 0,-15.4115 -4.97991,0 0,-3.2501 13.62924,0 0,3.2501"
         id="path3018"
         style="font-size:26.21008873px;font-variant:normal;font-stretch:normal;fill:#ffffff;font-family:Viga;-inkscape-font-specification:Viga" />
    </g>
  </g>
</svg>
