<?xml version="1.0" encoding="UTF-8" standalone="no"?>
<svg
   xmlns:dc="http://purl.org/dc/elements/1.1/"
   xmlns:cc="http://creativecommons.org/ns#"
   xmlns:rdf="http://www.w3.org/1999/02/22-rdf-syntax-ns#"
   xmlns:svg="http://www.w3.org/2000/svg"
   xmlns="http://www.w3.org/2000/svg"
   xmlns:sodipodi="http://sodipodi.sourceforge.net/DTD/sodipodi-0.dtd"
   xmlns:inkscape="http://www.inkscape.org/namespaces/inkscape"
   version="1.1"
   x="0px"
   y="0px"
   viewBox="0 0 1500 1500"
   enable-background="new 0 0 24 24"
   xml:space="preserve"
   id="svg2"
   inkscape:version="0.48.4 r9939"
   width="100%"
   height="100%"
   sodipodi:docname="dxephilly-logo.svg"
   inkscape:export-filename="/home/alex/gleasonator@gmail.com/Projects/DxE Philly/dxephilly-logo-dark.png"
   inkscape:export-xdpi="300"
   inkscape:export-ydpi="300"><metadata
     id="metadata16"><rdf:RDF><cc:Work
         rdf:about=""><dc:format>image/svg+xml</dc:format><dc:type
           rdf:resource="http://purl.org/dc/dcmitype/StillImage" /><dc:title /></cc:Work></rdf:RDF></metadata><defs
     id="defs14" /><sodipodi:namedview
     pagecolor="#ffffff"
     bordercolor="#666666"
     borderopacity="1"
     objecttolerance="10"
     gridtolerance="10"
     guidetolerance="10"
     inkscape:pageopacity="0"
     inkscape:pageshadow="2"
     inkscape:window-width="1278"
     inkscape:window-height="830"
     id="namedview12"
     showgrid="false"
     fit-margin-top="0"
     fit-margin-left="0"
     fit-margin-right="0"
     fit-margin-bottom="0"
     inkscape:zoom="1"
     inkscape:cx="734.06897"
     inkscape:cy="391.90085"
     inkscape:window-x="3612"
     inkscape:window-y="166"
     inkscape:window-maximized="0"
     inkscape:current-layer="svg2" /><path
     inkscape:connector-curvature="0"
     id="path8"
     d="m 829.35594,161.11571 c 2.4958,-7.93217 4.14854,-16.19015 4.13678,-24.95781 -0.2381,-46.117471 -37.79548,-83.302871 -83.91292,-83.064871 -46.1174,0.23822 -83.30313,37.7953 -83.06503,83.912761 -0.0132,11.05207 2.34715,21.61754 6.2749,31.24701 32.46648,-15.54154 89.33413,-32.17313 156.56627,-7.13709 z"
     style="fill:#5f5f5f;fill-opacity:1" /><path
     inkscape:connector-curvature="0"
     id="path10"
     d="m 750.44705,1446.9068 c 54.88546,-0.2513 99.26882,-41.9401 105.11566,-95.1607 l -211.119,1.017 c 6.38495,53.1233 51.17975,94.4126 106.00334,94.1437 z"
     style="fill:#5f5f5f;fill-opacity:1" /><g
     id="g3010"
     transform="matrix(1.1724073,0,0,1.1724073,163.74025,234.38321)"><path
       style="fill:#afb0b2;fill-opacity:1"
       d="M 91.309017,932.75 C 90.258878,931.12745 89.725291,171.69035 90.732351,112 L 91.5,66.5 98.309378,66.202957 c 9.039112,-0.394311 39.585762,3.101661 55.189562,6.316277 39.91449,8.222981 75.50159,23.411221 112.50106,48.014386 63.20399,42.02813 120.9423,107.31752 184.21065,208.30191 11.2546,17.96379 36.94791,61.33522 44.67566,75.41447 2.33958,4.2625 4.6208,7.75 5.06939,7.75 0.44858,0 7.24089,-11.1375 15.09402,-24.75 C 575.72255,282.08066 624.24712,216.29076 679.98912,163.62421 733.54933,113.01908 794.58403,80.942841 857,70.597736 c 15.09497,-2.501909 37.92119,-4.735289 45,-4.402925 L 908.5,66.5 909.11288,103 c 1.17833,70.17491 0.9964,169.49072 -0.31288,170.8 -1.90482,1.90482 -73.13805,1.70253 -74.72714,-0.21221 -0.87752,-1.05735 -1.03113,-13.43303 -0.6113,-49.25 0.3084,-26.31079 0.79828,-54.30348 1.08861,-62.20599 l 0.52789,-14.36821 -2.78903,0.6681 c -3.64542,0.87325 -27.1594,12.23632 -35.97426,17.38447 -5.44754,3.18154 -8.88231,6.36518 -16.35524,15.15947 -32.88393,38.69841 -47.45324,78.05309 -51.90713,140.21176 -1.13454,15.83369 -1.45025,115.94951 -0.40069,127.06261 l 0.6375,6.75 39.65539,0 c 29.50976,0 39.96241,0.30701 40.8554,1.2 1.72214,1.72214 1.72214,75.87786 0,77.6 -0.89302,0.89302 -11.35368,1.2 -40.89158,1.2 l -39.69158,0 -0.71479,18.25 c -1.26308,32.24857 -0.002,125.22655 1.91575,141.25 6.25203,52.23712 20.51738,87.60053 48.73866,120.82176 4.58895,5.40197 9.01177,10.89824 9.82849,12.21394 2.4172,3.89399 38.69714,23.4643 43.49871,23.4643 1.33482,0 1.51634,-5.96153 1.51634,-49.8 0,-37.4 0.2988,-50.0988 1.2,-51 1.7209,-1.7209 72.8791,-1.7209 74.6,0 1.31209,1.31209 1.46814,74.64722 0.31025,145.8 l -0.61025,37.5 -8,0.31021 c -16.5979,0.6436 -53.83882,-5.31076 -76.86114,-12.28914 C 756.44232,901.15288 694.45918,855.5897 632.3481,780.90515 596.99226,738.39205 555.64907,676.09917 512.08975,599.70873 c -9.1474,-16.0419 -11.54479,-19.57597 -12.65473,-18.6548 -0.75315,0.62506 -3.03517,4.13113 -5.07116,7.79127 -20.10721,36.14724 -50.2847,85.58787 -72.57324,118.89877 -86.5448,129.34386 -172.08436,199.29734 -268.62756,219.68123 -25.48387,5.3806 -59.900367,8.3434 -61.854043,5.3248 z m 94.820393,-89.28861 c 19.95815,-9.96738 24.435,-13.17961 33.61823,-24.12172 12.53947,-14.94118 20.45165,-26.40878 27.1428,-39.33967 14.4838,-27.99048 21.091,-52.77778 25.18954,-94.5 1.45098,-14.77069 2.13274,-329.9882 0.76996,-356 -3.53914,-67.55263 -19.15869,-111.15133 -53.67469,-149.82161 -3.12139,-3.49708 -6.12525,-7.06618 -6.67525,-7.93134 -2.4911,-3.91855 -41.04429,-23.49523 -42.85269,-21.7599 -0.81656,0.78356 1.05604,696.19324 1.8816,698.75166 0.49651,1.53873 2.14616,0.94246 14.6005,-5.27742 z M 659,498.5 c 0,-104.775 -0.3375,-190.48292 -0.75,-190.46205 -0.9974,0.0505 -4.41001,4.99516 -18.26295,26.46205 -22.28895,34.53957 -46.07959,75.05584 -80.87167,137.7272 l -13.17218,23.72719 2.66996,5.27281 c 4.3901,8.66984 39.25065,71.70619 52.13502,94.2728 22.19551,38.87479 55.95744,93.5 57.78908,93.5 C 658.79177,689 659,603.275 659,498.5 z m -300.23912,165 c 12.4849,-19.64061 28.5688,-46.68847 45.49039,-76.5 C 421.54704,556.52926 454,497.4083 454,496.3706 454,494.70236 412.42981,420.58675 393.49721,388.5 374.04866,355.53882 348.30324,315.07269 346.75,315.02367 c -0.92559,-0.0292 -0.95031,69.67664 -0.0839,236.77499 0.53654,103.48456 0.90988,128.04749 1.93033,127 0.69583,-0.71426 5.26985,-7.59866 10.16449,-15.29866 z"
       id="path3014-6"
       inkscape:connector-curvature="0" /><path
       inkscape:connector-curvature="0"
       style="fill:#313133;fill-opacity:1"
       d="m 833.80986,148.08951 c 3.03354,-1.14481 0.8397,11.60905 0.75,14.03125 -0.2904,7.90251 -0.7854,35.90796 -1.0938,62.21875 -0.4198,35.81697 -0.2838,48.19265 0.5938,49.25 1.5891,1.91474 72.8451,2.12357 74.75,0.21875 1.1324,-1.13243 1.4237,-75.564 0.7187,-141.0625 -34.00228,-1.80452 -55.50266,1.93624 -75.7187,15.34375 z M 90.559856,132.02701 c -0.6132,108.42618 -1.009824,557.86256 -0.384424,730.23438 11.067158,3.64568 24.628518,5.48108 33.665628,4.17187 16.05288,-1.80471 33.61085,-6.2599 49.125,-17.03125 -0.9172,0.15696 -1.2597,-0.10512 -1.4375,-0.65625 -0.8256,-2.55842 -2.6916,-697.96644 -1.875,-698.75 0.098,-0.0941 0.3227,-0.11903 0.625,-0.0937 -27.43146,-14.26754 -49.75293,-17.20985 -79.718704,-17.875 z m 122.000004,39.4375 c -0.1,0.002 -0.1844,0.0259 -0.2813,0.0312 0.075,0.0881 0.1702,0.17357 0.2188,0.25 0.55,0.86516 3.5661,4.44042 6.6875,7.9375 34.516,38.67028 50.1171,82.25987 53.6562,149.8125 1.3628,26.0118 0.701,341.22931 -0.75,356 -4.0985,41.72222 -10.7037,66.50952 -25.1875,94.5 -6.6911,12.93089 -14.6168,24.40257 -27.1562,39.34375 -1.4432,1.71956 -2.7735,3.23102 -4.0625,4.625 0.9933,1.625 3.9857,2.01215 11.9375,-3.8125 51.59645,-37.76622 101.30185,-92.15861 121.6875,-142.3125 -0.3326,0.46287 -0.5988,0.84555 -0.7188,0.96875 -1.0204,1.04749 -1.4009,-23.51544 -1.9375,-127 -0.8285,-159.78263 -0.8409,-230.48218 -0.031,-236.34375 -27.84296,-54.88729 -82.04552,-106.0831 -120.4375,-137.46875 -4.36501,-2.62951 -8.17363,-6.59089 -13.625,-6.53125 z m 444.625,137.4375 c 0.4993,-0.55348 0.8524,-0.86436 1.0625,-0.875 0.4125,-0.0209 0.75,85.69375 0.75,190.46875 0,104.775 -0.2143,190.5 -0.4688,190.5 -0.1346,0 -0.4749,-0.37493 -0.9375,-0.9375 13.55052,26.20206 32.54737,49.63281 51.625,71.9375 6.24872,8.08647 71.25066,73.81039 76.3125,67.9688 0.1,-0.16138 0.659,-0.90246 1.3438,-1.9375 -1.7518,-2.30629 -5.1541,-6.52253 -8.7188,-10.71875 -28.2213,-33.22123 -42.498,-68.57538 -48.75,-120.8125 -1.9177,-16.02345 -3.1693,-109.00143 -1.9062,-141.25 l 0.7187,-18.25 39.6875,0 c 29.5379,0 40.0132,-0.29448 40.9063,-1.1875 1.7221,-1.72214 1.7221,-75.87161 0,-77.59375 -0.893,-0.89299 -11.3653,-1.21875 -40.875,-1.21875 l -39.6563,0 -0.625,-6.75 c -1.0495,-11.1131 -0.7283,-111.22881 0.4063,-127.0625 4.4539,-62.15867 19.0223,-101.52034 51.9062,-140.21875 2.9722,-3.49771 5.2997,-6.08072 7.375,-8.15625 -53.9115,20.23023 -116.73215,115.63425 -130.1562,136.0937 z m 214.3125,440 c -18.2198,0 -36.4521,0.45205 -37.3125,1.3125 -0.9012,0.9012 -1.1875,13.6 -1.1875,51 0,43.83847 -0.1652,49.78125 -1.5,49.78125 -0.092,0 -0.2299,-0.0173 -0.3438,-0.0312 3.0372,3.39429 26.2774,12.48402 44.8438,15.5625 7.1129,1.17942 29.04277,1.19473 35.34057,0.17656 0.6843,-60.52745 -1.09721,-115.35971 -2.22651,-116.48906 -0.8605,-0.86045 -19.39436,-1.3125 -37.61406,-1.3125 z"
       id="path3014-9"
       sodipodi:nodetypes="ccsccccccccccccccccsssscccccsccccccssccccssccsccsccssccccsscscccc" /></g><path
     inkscape:connector-curvature="0"
     d="m 761.10934,201.43721 c -5.52611,-0.007 -10.58942,1.0499 -16.0625,1.53125 -5.39398,-0.43818 -10.61045,-1.48005 -16.09375,-1.40625 -119.15852,0.56845 -223.00176,62.8231 -282.50001,156.28125 1.62463,0.90796 3.24961,1.84344 4.875,2.78125 0.80077,0.46173 1.60507,0.90601 2.40625,1.375 0.54528,0.31945 1.07954,0.6459 1.625,0.96875 0.29366,0.17365 0.58127,0.35662 0.875,0.53125 1.05259,0.6264 2.10279,1.26711 3.15625,1.90625 1.16353,0.70523 2.33516,1.40414 3.5,2.125 0.18685,0.11574 0.37561,0.22761 0.5625,0.34375 0.76037,0.47209 1.52024,0.95869 2.28125,1.4375 0.58481,0.36827 1.16475,0.7215 1.75,1.09375 2.70373,1.71832 5.41121,3.47669 8.125,5.28125 4.6313,3.07963 9.22812,6.26622 13.8125,9.5625 18.33754,13.185 36.31756,28.12689 54.15625,45.0625 0.006,0.005 0.0257,-0.005 0.0312,0 4.45964,4.23401 8.89955,8.60752 13.34375,13.09375 6.66634,6.72917 13.31945,13.74585 19.96875,21.0625 4.43283,4.8779 8.84812,9.88335 13.28125,15.03126 2.21656,2.57395 4.43843,5.16972 6.65625,7.8125 0.005,0.006 -0.005,0.0251 0,0.0312 2.21271,2.63685 4.44152,5.29375 6.65626,8 8.8846,10.8554 17.76996,22.27335 26.71875,34.28125 2.23589,3.0003 4.47688,6.01928 6.71875,9.09375 4.48872,6.15533 8.9826,12.44819 13.5,18.90629 2.25618,3.2254 4.51673,6.4789 6.78125,9.7812 2.26939,3.3092 4.53395,6.644 6.8125,10.0313 4.54729,6.76 9.099,13.6736 13.6875,20.75 4.58851,7.0762 9.20773,14.319 13.84375,21.7187 1.64937,2.6326 3.55216,5.7174 5.65625,9.1563 4.21165,6.8815 9.16903,15.1122 14.3125,23.71868 6.75721,11.3108 13.70147,23.1041 19.6875,33.375 0.83585,1.4337 1.77176,2.9811 2.5625,4.3438 0.004,0.01 -0.004,0.024 0,0.031 4.29763,7.4062 7.89385,13.6906 10.15625,17.8125 0.68574,1.2493 1.35532,2.4139 2,3.5 0.004,0.01 -0.004,0.024 0,0.031 1.92734,3.2449 3.54407,5.5312 3.9375,5.5312 0.52592,0 8.48043,-13.0406 17.6875,-29 8.88687,-15.4043 17.57596,-30.1018 26.06251,-44.12498 0.005,-0.01 -0.005,-0.024 0,-0.031 0.80084,-1.3233 1.60854,-2.5947 2.40625,-3.9062 3.42712,-5.6347 6.81457,-11.2016 10.1875,-16.625 6.23801,-10.0301 12.41858,-19.7162 18.5,-29.0625 0.005,-0.01 -0.005,-0.024 0,-0.031 2.02388,-3.1104 4.0532,-6.1804 6.0625,-9.2188 0.005,-0.01 -0.005,-0.024 0,-0.031 0.804,-1.2157 1.60443,-2.3893 2.40625,-3.5937 3.21106,-4.8233 6.41412,-9.6034 9.59375,-14.25 1.98063,-2.8944 3.96728,-5.7656 5.9375,-8.5938 0.008,-0.012 0.0229,-0.019 0.0312,-0.031 1.97838,-2.8397 3.93698,-5.6314 5.90625,-8.40624 5.90776,-8.32492 11.77428,-16.34954 17.625,-24.125 3.90051,-5.18342 7.79848,-10.26075 11.6875,-15.21875 3.88895,-4.95822 7.76765,-9.81468 11.65625,-14.5625 7.7772,-9.49524 15.5642,-18.56864 23.4063,-27.31251 3.921,-4.37209 7.8586,-8.66824 11.8124,-12.875 3.9438,-4.19583 7.9189,-8.32868 11.9063,-12.375 0.01,-0.0105 0.021,-0.0208 0.031,-0.0312 5.9967,-6.08457 12.0294,-11.9925 18.1562,-17.78125 1.9669,-1.85838 3.9535,-3.68429 5.9375,-5.5 1.5143,-1.38597 3.0073,-2.76405 4.5313,-4.125 0.2651,-0.23675 0.547,-0.45151 0.8124,-0.6875 1.1647,-1.03564 2.3299,-2.07275 3.5,-3.09375 0.456,-0.3978 0.9182,-0.79193 1.375,-1.1875 1.2977,-1.12386 2.602,-2.23791 3.9063,-3.34375 0.8921,-0.75622 1.7924,-1.50223 2.6875,-2.25 0.739,-0.61744 1.4777,-1.23209 2.2188,-1.84375 1.0108,-0.83424 2.0166,-1.67652 3.0312,-2.5 1.0303,-0.83627 2.0597,-1.67487 3.0938,-2.5 1.4255,-1.1373 2.8485,-2.25891 4.2812,-3.375 0.3564,-0.2777 0.7057,-0.56736 1.0625,-0.84375 1.9826,-1.53526 3.9729,-3.03673 5.9687,-4.53125 0.1373,-0.10283 0.2689,-0.20986 0.4063,-0.3125 0.9725,-0.72653 1.962,-1.43943 2.9375,-2.15625 0.8655,-0.63605 1.7258,-1.27786 2.5938,-1.90625 0.096,-0.0699 0.1846,-0.14891 0.2812,-0.21875 1.1426,-0.82591 2.2908,-1.6249 3.4375,-2.4375 0.8133,-0.57631 1.6222,-1.14915 2.4375,-1.71875 0.842,-0.5883 1.6871,-1.16887 2.5312,-1.75 0.9079,-0.62495 1.8086,-1.25836 2.7188,-1.875 1.5433,-1.04563 3.1061,-2.07209 4.6562,-3.09375 0.3954,-0.26055 0.7918,-0.52226 1.1876,-0.78125 1.3522,-0.88492 2.7052,-1.75836 4.0624,-2.625 0.8546,-0.54561 1.7061,-1.08666 2.5626,-1.625 0.9487,-0.59635 1.8926,-1.19384 2.8437,-1.78125 1.1627,-0.71812 2.3339,-1.42029 3.5,-2.125 0.8424,-0.5091 1.6871,-1.02915 2.5313,-1.53125 1.4952,-0.88928 2.9994,-1.75778 4.5,-2.625 0.5492,-0.31742 1.1063,-0.62304 1.6562,-0.9375 0.1702,-0.0973 0.3298,-0.21549 0.5,-0.3125 -59.7981,-96.01774 -166.04646,-159.76789 -287.59336,-159.188 z"
     id="path6"
     style="fill:#5f5f5f;fill-opacity:1"
     sodipodi:nodetypes="cccccccccccccssccccscccccscscsccccccccsscccsccccssccccccccccsccsccccsccccccccccccccccccsscccc" /><path
     inkscape:connector-curvature="0"
     d="m 269.89056,1121.031 c -37.05616,41.7385 -68.15625,41.9062 -68.15625,41.9062 l 0.625,164.7188 c 0,0 56.1174,-0.2841 68.03125,-0.3438 -0.14389,-25.512 -0.26509,-83.1483 -0.375,-140.6875 -0.0481,-19.118 -0.0829,-43.8532 -0.125,-65.5937 z"
     id="path6-0"
     style="fill:#5f5f5f;fill-opacity:1"
     sodipodi:nodetypes="cccccc" /><path
     inkscape:connector-curvature="0"
     d="m 749.54684,915.46841 c -0.0947,0.024 -0.16867,0.089 -0.25,0.1563 -0.22075,0.1832 -0.55427,0.5704 -0.96875,1.125 -0.82895,1.1091 -1.98255,2.8763 -3.1875,4.875 -0.60029,1.0003 -1.21575,2.0522 -1.8125,3.125 -2.94673,5.2974 -6.06919,10.8454 -9.34375,16.5625 -3.27456,5.7171 -6.69861,11.5918 -10.21875,17.5938 -21.12083,36.0119 -45.90157,75.95949 -65.5,105.24999 -101.46576,151.6436 -201.78081,233.6642 -314.96877,257.5624 -8.86923,1.8727 -18.64835,3.4551 -28.09375,4.7188 142.75097,-0.6005 595.83973,-1.6723 852.18753,-2.8125 -13.5965,-2.4776 -27.1389,-5.5516 -38,-8.8437 -78.7817,-23.8799 -151.4618,-77.2831 -224.2813,-164.8438 -5.1765,-6.2245 -10.4881,-12.8152 -15.875,-19.75 0,-0.01 0,-0.025 0,-0.031 -2.691,-3.4646 -5.41584,-7.0193 -8.1562,-10.6563 -0.005,-0.01 0.005,-0.025 0,-0.031 -2.74058,-3.6374 -5.5248,-7.3495 -8.3125,-11.1562 -0.005,-0.01 0.005,-0.024 0,-0.031 -2.7879,-3.8072 -5.60463,-7.6832 -8.4375,-11.6563 -0.005,-0.01 0.005,-0.024 0,-0.031 -2.83307,-3.9735 -5.71786,-8.0199 -8.59375,-12.1562 -0.005,-0.01 0.005,-0.024 0,-0.031 -2.8809,-4.1437 -5.76579,-8.3526 -8.6875,-12.6563 -8.76588,-12.9112 -17.71824,-26.5197 -26.8125,-40.8125 -0.005,-0.01 0.005,-0.024 0,-0.031 -6.05827,-9.5217 -12.19265,-19.3352 -18.375,-29.4376 -3.08877,-5.04749 -6.19596,-10.18729 -9.3125,-15.37499 -0.005,-0.01 0.005,-0.024 0,-0.031 -3.11666,-5.1879 -6.26397,-10.4252 -9.40626,-15.75 -0.005,-0.01 0.005,-0.024 0,-0.031 -6.28961,-10.6584 -12.65217,-21.5942 -19.03125,-32.7813 -2.51355,-4.408 -4.58694,-8.017 -6.3125,-10.9375 -0.13068,-0.2212 -0.21707,-0.3804 -0.34375,-0.5938 -0.74613,-1.2559 -1.38345,-2.2812 -2,-3.2812 -0.15432,-0.2511 -0.25945,-0.4203 -0.40625,-0.6562 -0.55372,-0.8893 -1.01354,-1.5941 -1.46875,-2.2813 -0.40624,-0.6167 -0.72531,-1.0923 -1.0625,-1.5625 -0.13363,-0.1853 -0.25133,-0.3989 -0.375,-0.5625 -0.063,-0.084 -0.12695,-0.1399 -0.1875,-0.2187 -0.30329,-0.3951 -0.56574,-0.7335 -0.8125,-1 -0.0462,-0.05 -0.0806,-0.079 -0.125,-0.125 -0.12819,-0.1331 -0.26088,-0.2446 -0.375,-0.3438 -0.0373,-0.032 -0.0578,-0.065 -0.0937,-0.094 -0.12608,-0.1033 -0.23369,-0.1559 -0.34375,-0.2187 -0.0143,-0.01 -0.0172,-0.024 -0.0312,-0.031 -0.11037,-0.06 -0.21652,-0.1041 -0.3125,-0.125 -0.11117,-0.023 -0.21781,-0.024 -0.3125,0 z"
     id="path6-4"
     style="fill:#5f5f5f;fill-opacity:1"
     sodipodi:nodetypes="ccccsssssccssccccccccccccccccccsccccccccccccccccc" /><path
     inkscape:connector-curvature="0"
     d="m 1229.6406,1117.156 c 0.1413,2.0089 0.2686,4.9609 0.375,8.75 0.1744,6.2097 0.2961,14.7869 0.375,24.9062 0.036,4.4824 0.046,9.2097 0.062,14.3125 0,1.2658 0.028,2.2624 0.031,3.5625 0.01,3.4392 7e-4,6.6172 0,10.2812 -8e-4,7.6773 -0.024,15.6727 -0.062,24.1563 -0.038,8.4381 -0.081,17.0728 -0.1564,26.0625 -3e-4,0.054 6e-4,0.1027 0,0.1562 -0.067,7.9951 -0.1527,16.0346 -0.25,24.2813 -0.013,1.0762 -0.018,2.1086 -0.031,3.1875 -0.1139,9.3054 -0.2538,18.6985 -0.4062,28.0625 l -0.031,44.375 c 31.5487,-0.1496 35.3531,-0.1859 68.7187,-0.3437 l -0.7187,-171.2188 c 0,0 -30.735,0.1516 -67.9063,-40.5312 z"
     id="path6-1"
     style="fill:#5f5f5f;fill-opacity:1"
     sodipodi:nodetypes="csccccccccccccccc" /></svg>